<svg width="16" height="17" viewBox="0 0 16 17" fill="none" xmlns="http://www.w3.org/2000/svg">
<path fill-rule="evenodd" clip-rule="evenodd" d="M8.54636 0.1832C8.22366 -0.0610666 7.77658 -0.0610666 7.45388 0.1832L0.710427 5.28237C0.262427 5.62148 0.00012207 6.1476 0.00012207 6.70592V15.2105C0.00012207 16.2949 0.960122 17 1.91561 17H5.2959H10.7043H14.0846C15.0401 17 16.0001 16.2949 16.0001 15.2105V6.70592C16.0001 6.1476 15.7378 5.62148 15.2898 5.28237L8.54636 0.1832ZM11.6058 15.2105H14.0846C14.1423 15.2105 14.1793 15.1926 14.1973 15.1792V6.70592L8.00012 2.01923L1.80294 6.70592L1.2567 5.99459L1.80294 6.70592V15.1792C1.82097 15.1926 1.85792 15.2105 1.91561 15.2105H4.39449V9.84201C4.39449 9.34811 4.79832 8.94726 5.2959 8.94726H10.7043C11.2019 8.94726 11.6058 9.34811 11.6058 9.84201V15.2105ZM6.19731 15.2105H9.80294V10.7368H6.19731V15.2105Z" fill="#F58634"/>
</svg>
