<svg width="16" height="17" viewBox="0 0 16 17" fill="none" xmlns="http://www.w3.org/2000/svg">
<path fill-rule="evenodd" clip-rule="evenodd" d="M11.0023 5.15152C11.0023 6.85873 9.65834 8.24242 8.00013 8.24242C6.34191 8.24242 4.99793 6.85873 4.99793 5.15152C4.99793 3.4443 6.34191 2.06061 8.00013 2.06061C9.65834 2.06061 11.0023 3.4443 11.0023 5.15152ZM13.0038 5.15152C13.0038 7.99618 10.7642 10.303 8.00013 10.303C5.2371 10.303 2.99646 7.99618 2.99646 5.15152C2.99646 2.30685 5.2371 0 8.00013 0C10.7642 0 13.0038 2.30685 13.0038 5.15152ZM15.993 15.9718C15.9209 15.3979 15.7899 14.8425 15.6067 14.313C15.1464 12.9818 14.3528 11.8093 13.3271 10.8955C13.257 10.8326 13.1849 10.7708 13.1119 10.71L13.1029 10.7028C13.0618 10.6688 13.0208 10.6358 12.9788 10.6028C12.8407 10.4926 12.6736 10.4246 12.4985 10.4184C11.9871 10.4009 11.7279 10.5235 11.5277 10.7553C11.1685 11.1747 11.3636 11.8361 11.7599 12.2276C11.7739 12.2421 11.7879 12.2555 11.8019 12.2678C11.8169 12.2822 11.8329 12.2956 11.849 12.309C11.896 12.3482 11.944 12.3884 11.9901 12.4296C12.1512 12.5707 12.3043 12.7212 12.4484 12.8788C12.9928 13.4712 13.4211 14.1708 13.6973 14.9394H11.4787H4.52059H2.30195C2.57916 14.1708 3.00649 13.4712 3.55088 12.8788C3.69399 12.7232 3.8451 12.5759 4.00321 12.4358C4.05225 12.3925 4.10129 12.3502 4.15133 12.308C4.16734 12.2956 4.18335 12.2822 4.19836 12.2678C4.21237 12.2544 4.22638 12.241 4.24039 12.2276C4.63668 11.8361 4.83281 11.1736 4.47255 10.7553C4.2734 10.5235 4.01321 10.4009 3.50184 10.4184C3.32771 10.4246 3.15961 10.4926 3.02151 10.6018C2.97947 10.6348 2.93842 10.6688 2.89739 10.7028L2.88841 10.71C2.81036 10.7749 2.73328 10.8419 2.65722 10.9099C1.63948 11.8207 0.851909 12.989 0.393573 14.313C0.209438 14.8425 0.0793258 15.3979 0.00727302 15.9718C-0.0627783 16.5364 0.391559 17 0.943964 17H2.30195H13.6973H15.0553C15.6077 17 16.063 16.5364 15.993 15.9718Z" fill="#6C6B6B"/>
</svg>
